# xmcd
#
# Track frame offsets: 
#        150
#        16850
#        36139
#        58161
#        75909
#        97963
#        114949
#        133393
#        149817
#        170886
#        188872
#        209081
#        222212
#        246107
#        269423
#        287898
#
# Disc length: 4051 seconds
#
# Revision: 1
# Processed by: cddbd v1.5.2PL0 Copyright (c) Steve Scherf et al.
# Submitted via: ExactAudioCopyFreeDBPlugin 1.0
#
DISCID=f90fd110
DTITLE=Various Artist - New Country Rock 01
DYEAR=2010
DGENRE=Country
TTITLE0=Rick Monroe - Dancehall King
TTITLE1=Charlie A'Court - Bring On The Storm
TTITLE2=Irion - One In A Million
TTITLE3=Steve Fister - Coulda Woulda Shoulda
TTITLE4=Mark Shelby - Nine Pound Hammer
TTITLE5=Collin Raye - Too Hot To sleep
TTITLE6=The Tony Nash Trio - Voodoo Doll
TTITLE7=Michael Holloway - No More Mustang Sally
TTITLE8=Wolf Mail - 100 Years
TTITLE9=Jackson MacKay - Honky Tonk Boy
TTITLE10=John Campbelljohn - Sydney Steel
TTITLE11=Miko Marks - Kickin' Back
TTITLE12=The Returners - Good Bye
TTITLE13=Dean Collin - Devil In Disguise
TTITLE14=Coal - Keep Movin' On
TTITLE15=Cherish Alexander - Hold On
EXTD=
EXTT0=
EXTT1=
EXTT2=
EXTT3=
EXTT4=
EXTT5=
EXTT6=
EXTT7=
EXTT8=
EXTT9=
EXTT10=
EXTT11=
EXTT12=
EXTT13=
EXTT14=
EXTT15=
PLAYORDER=
